<svg xmlns="http://www.w3.org/2000/svg" viewBox="0 0 426.96 508.03"><defs><style>.cls-1{fill:#fff;}.cls-2{fill:#1d1d1b;}.cls-3{fill:#575756;}.cls-3,.cls-4,.cls-6,.cls-8{stroke:#1d1d1b;stroke-miterlimit:10;}.cls-4{fill:#f8d27c;}.cls-5{fill:none;}.cls-6{fill:#706f6f;}.cls-7{fill:#ededed;}.cls-8{fill:#3c3c3b;}</style></defs><g id="Ebene_2" data-name="Ebene 2"><g id="Ebene_1-2" data-name="Ebene 1"><path class="cls-1" d="M424.87,138.27,214.51,16.85l-1-.61-1.05.61L2.09,138.27l-1,.61v245.3l1,.6L212.42,506.23l1.05.61,1-.61L424.87,384.78l1-.6V138.88ZM212.42,18l1.05-.61,1,.61L423.83,138.88,214.51,259.72l-1,.61h0l-1.05-.61L3.13,138.88ZM3.13,384.18l-1-.61V140.7L211.4,261.54l1,.58V505Zm421.74-.61-1,.61L214.51,505V262.15l0,0,1-.58L424.87,140.7Z"/><path class="cls-2" d="M214,15.32l-.52-.29L.52,138l-.52.29V384.78l213,123,.52.29,213-122.95.52-.3V138.27ZM424.87,383.57l-1,.61L214.51,505l-1,.61-1.05-.61L3.13,384.18l-1-.61V139.49l1-.61L212.42,18l1.05-.61,1,.61L423.83,138.88l1,.61Z"/><polygon class="cls-3" points="424.87 140.7 424.87 383.57 423.83 384.18 214.51 505.02 214.51 262.14 214.53 262.12 215.56 261.54 424.87 140.7"/><polygon class="cls-4" points="423.83 138.88 214.51 259.72 213.49 260.33 213.47 260.33 212.42 259.72 3.13 138.88 212.42 18.04 213.47 17.43 214.51 18.04 423.83 138.88"/><polyline class="cls-5" points="213.47 506.84 213.47 505.63 213.47 262.75 213.47 262.73 213.47 261.54 213.47 261.52 213.47 260.33"/><line class="cls-5" x1="213.47" y1="17.43" x2="213.47" y2="16.24"/><polygon class="cls-2" points="214.51 259.72 214.51 506.84 212.42 506.84 212.42 259.72 213.47 260.33 213.49 260.33 214.51 259.72"/><polygon class="cls-2" points="214.51 16.24 214.51 18.04 213.47 17.43 212.42 18.04 212.42 16.24 214.51 16.24"/><line class="cls-5" x1="425.91" y1="384.18" x2="424.87" y2="383.57"/><polyline class="cls-5" points="214.53 262.12 214.51 262.12 213.49 261.54 213.47 261.54 213.47 261.52 212.44 260.93 212.42 260.93 212.42 260.91 2.09 139.49 1.04 138.88"/><polygon class="cls-2" points="214.51 260.93 215.56 261.54 214.53 262.12 214.51 262.14 214.51 263.34 213.49 262.73 213.47 262.73 212.42 262.14 212.42 262.12 211.4 261.54 2.09 140.7 1.04 140.09 0.52 139.8 1.04 138.9 1.04 138.88 1.57 137.98 2.09 138.27 3.13 138.88 212.42 259.72 213.47 260.33 213.49 260.33 214.51 260.93"/><polygon class="cls-2" points="426.44 383.28 425.39 385.08 424.87 384.78 423.83 384.18 424.87 383.57 424.87 382.38 425.91 382.99 426.44 383.28"/><polygon class="cls-6" points="212.42 262.12 212.42 505.02 3.13 384.18 2.09 383.57 2.09 140.7 211.4 261.54 212.42 262.12"/><line class="cls-5" x1="2.09" y1="383.57" x2="1.04" y2="384.18"/><polyline class="cls-5" points="212.42 262.12 213.47 261.54 213.49 261.54 214.51 260.93 424.87 139.49 425.91 138.88"/><polygon class="cls-2" points="2.09 383.57 3.13 384.18 2.09 384.78 1.57 385.08 0.52 383.28 1.04 382.99 2.09 382.38 2.09 383.57"/><polygon class="cls-2" points="426.44 139.8 425.91 140.09 424.87 140.7 215.56 261.54 214.53 262.12 214.51 262.14 213.49 262.73 213.47 262.73 213.47 262.75 212.42 263.36 212.42 262.12 211.4 261.54 212.42 260.93 212.44 260.93 213.47 260.33 213.49 260.33 214.51 259.72 423.83 138.88 424.87 138.27 425.39 137.98 425.91 138.88 425.91 138.9 426.44 139.8"/><polygon class="cls-7" points="132.93 461.57 56.35 417.36 57.37 358.75 133.12 399.54 132.93 461.57"/><rect class="cls-6" x="20.5" y="66.22" width="244.48" height="142.27" transform="translate(87.8 -52.97) rotate(30)"/><polygon class="cls-8" points="318.92 121.29 108.04 0.87 212.91 15.92 421.88 136.55 318.92 121.29"/></g></g></svg>